# Blender v2.79 (sub 0) OBJ File: ''
# www.blender.org
mtllib ghost1.mtl
o Cylinder_Cylinder.002
v 0.652567 1.231090 -0.932705
v 0.652567 1.226357 0.067295
v 1.518592 1.231090 -0.432705
v 1.518592 1.231090 0.567295
v 0.652567 1.231090 0.591418
v -0.213459 1.231090 0.567295
v -0.213459 1.231090 -0.432705
v 0.652567 1.149120 -1.012977
v 1.588109 1.149120 -0.472841
v 1.588109 1.149120 0.607431
v 0.652566 1.149120 0.655703
v -0.282976 1.149120 0.607431
v -0.282976 1.149120 -0.472841
v 0.652567 1.056099 -1.012977
v 1.588109 1.056099 -0.472841
v 1.588109 1.056099 0.607431
v 0.652566 1.056099 0.655703
v -0.282976 1.056099 0.607431
v -0.282976 1.056099 -0.472841
v 0.210312 1.231090 0.817295
v 0.194036 1.149120 0.890743
v 0.184795 1.056099 0.877499
v 1.095361 1.231090 0.817295
v 1.110556 1.149120 0.890743
v 1.120338 1.056099 0.877499
vn -0.0027 1.0000 0.0047
vn -0.0055 1.0000 0.0000
vn -0.0028 1.0000 -0.0047
vn -0.0046 0.9999 -0.0090
vn 0.0055 1.0000 0.0000
vn 0.0027 1.0000 0.0047
vn 0.7627 0.6468 0.0000
vn 1.0000 0.0000 0.0000
vn 0.3813 0.6468 -0.6605
vn -0.7627 0.6468 0.0000
vn -0.3722 0.5766 0.7273
vn -0.3813 0.6468 -0.6605
vn -0.3857 0.6533 0.6515
vn 0.0000 -1.0000 0.0000
vn -1.0000 0.0000 0.0000
vn -0.4409 -0.0868 0.8934
vn 0.5000 0.0000 -0.8660
vn -0.5000 0.0000 -0.8660
vn -0.5051 -0.0363 0.8623
vn 0.4407 -0.0855 0.8936
vn 0.3727 0.5749 0.7284
vn 0.5049 -0.0349 0.8625
vn 0.3864 0.6518 0.6526
vn 0.0046 0.9999 -0.0090
vn 0.0028 1.0000 -0.0047
usemtl None
s off
f 1//1 2//1 3//1
f 3//2 2//2 4//2
f 4//3 2//3 23//3
f 5//4 2//4 20//4
f 6//5 2//5 7//5
f 7//6 2//6 1//6
f 3//7 4//7 10//7 9//7
f 9//8 10//8 16//8 15//8
f 1//9 3//9 9//9 8//9
f 6//10 7//10 13//10 12//10
f 23//11 5//11 11//11 24//11
f 7//12 1//12 8//12 13//12
f 20//13 6//13 12//13 21//13
f 14//14 15//14 16//14 25//14 17//14 22//14 18//14 19//14
f 12//15 13//15 19//15 18//15
f 24//16 11//16 17//16 25//16
f 8//17 9//17 15//17 14//17
f 13//18 8//18 14//18 19//18
f 21//19 12//19 18//19 22//19
f 11//20 21//20 22//20 17//20
f 5//21 20//21 21//21 11//21
f 10//22 24//22 25//22 16//22
f 4//23 23//23 24//23 10//23
f 23//24 2//24 5//24
f 20//25 2//25 6//25
o Cylinder.001
v 3.888053 0.991200 -12.257059
v 3.888053 2.991200 -12.257059
v 4.110574 0.991200 -12.231987
v 4.110574 2.991200 -12.231987
v 4.321937 0.991200 -12.158028
v 4.321937 2.991200 -12.158028
v 4.511543 0.991200 -12.038891
v 4.511543 2.991200 -12.038891
v 4.669885 0.991200 -11.880548
v 4.669885 2.991200 -11.880548
v 4.789022 0.991200 -11.690943
v 4.789022 2.991200 -11.690943
v 4.862981 0.991200 -11.479580
v 4.862981 2.991200 -11.479580
v 4.888053 0.991200 -11.257059
v 4.888053 2.991200 -11.257059
v 4.862981 0.991200 -11.034538
v 4.862981 2.991200 -11.034538
v 4.789022 0.991200 -10.823175
v 4.789022 2.991200 -10.823175
v 4.669885 0.991200 -10.633570
v 4.669885 2.991200 -10.633570
v 4.511543 0.991200 -10.475227
v 4.511543 2.991200 -10.475227
v 4.321937 0.991200 -10.356091
v 4.321937 2.991200 -10.356091
v 4.110574 0.991200 -10.282131
v 4.110574 2.991200 -10.282131
v 3.888053 0.991200 -10.257059
v 3.888053 2.991200 -10.257059
v 3.665532 0.991200 -10.282131
v 3.665532 2.991200 -10.282131
v 3.454169 0.991200 -10.356091
v 3.454169 2.991200 -10.356091
v 3.264563 0.991200 -10.475228
v 3.264563 2.991200 -10.475228
v 3.106221 0.991200 -10.633570
v 3.106221 2.991200 -10.633570
v 2.987084 0.991200 -10.823176
v 2.987084 2.991200 -10.823176
v 2.913125 0.991200 -11.034539
v 2.913125 2.991200 -11.034539
v 2.888053 0.991200 -11.257060
v 2.888053 2.991200 -11.257060
v 2.913125 0.991200 -11.479581
v 2.913125 2.991200 -11.479581
v 2.987085 0.991200 -11.690944
v 2.987085 2.991200 -11.690944
v 3.106222 0.991200 -11.880549
v 3.106222 2.991200 -11.880549
v 3.264564 0.991200 -12.038892
v 3.264564 2.991200 -12.038892
v 3.454170 0.991200 -12.158029
v 3.454170 2.991200 -12.158029
v 3.665534 0.991200 -12.231987
v 3.665534 2.991200 -12.231987
vn 0.1120 0.0000 -0.9937
vn 0.3303 0.0000 -0.9439
vn 0.5320 0.0000 -0.8467
vn 0.7071 0.0000 -0.7071
vn 0.8467 0.0000 -0.5320
vn 0.9439 0.0000 -0.3303
vn 0.9937 0.0000 -0.1120
vn 0.9937 0.0000 0.1120
vn 0.9439 0.0000 0.3303
vn 0.8467 0.0000 0.5320
vn 0.7071 0.0000 0.7071
vn 0.5320 0.0000 0.8467
vn 0.3303 0.0000 0.9439
vn 0.1120 0.0000 0.9937
vn -0.1120 0.0000 0.9937
vn -0.3303 0.0000 0.9439
vn -0.5320 0.0000 0.8467
vn -0.7071 0.0000 0.7071
vn -0.8467 0.0000 0.5320
vn -0.9439 0.0000 0.3303
vn -0.9937 0.0000 0.1120
vn -0.9937 0.0000 -0.1120
vn -0.9439 0.0000 -0.3303
vn -0.8467 0.0000 -0.5320
vn -0.7071 0.0000 -0.7071
vn -0.5320 0.0000 -0.8467
vn 0.0000 1.0000 0.0000
vn -0.3303 0.0000 -0.9439
vn -0.1120 0.0000 -0.9937
vn 0.0000 -1.0000 -0.0000
usemtl None
s off
f 26//26 27//26 29//26 28//26
f 28//27 29//27 31//27 30//27
f 30//28 31//28 33//28 32//28
f 32//29 33//29 35//29 34//29
f 34//30 35//30 37//30 36//30
f 36//31 37//31 39//31 38//31
f 38//32 39//32 41//32 40//32
f 40//33 41//33 43//33 42//33
f 42//34 43//34 45//34 44//34
f 44//35 45//35 47//35 46//35
f 46//36 47//36 49//36 48//36
f 48//37 49//37 51//37 50//37
f 50//38 51//38 53//38 52//38
f 52//39 53//39 55//39 54//39
f 54//40 55//40 57//40 56//40
f 56//41 57//41 59//41 58//41
f 58//42 59//42 61//42 60//42
f 60//43 61//43 63//43 62//43
f 62//44 63//44 65//44 64//44
f 64//45 65//45 67//45 66//45
f 66//46 67//46 69//46 68//46
f 68//47 69//47 71//47 70//47
f 70//48 71//48 73//48 72//48
f 72//49 73//49 75//49 74//49
f 74//50 75//50 77//50 76//50
f 76//51 77//51 79//51 78//51
f 29//52 27//52 81//52 79//52 77//52 75//52 73//52 71//52 69//52 67//52 65//52 63//52 61//52 59//52 57//52 55//52 53//52 51//52 49//52 47//52 45//52 43//52 41//52 39//52 37//52 35//52 33//52 31//52
f 78//53 79//53 81//53 80//53
f 80//54 81//54 27//54 26//54
f 26//55 28//55 30//55 32//55 34//55 36//55 38//55 40//55 42//55 44//55 46//55 48//55 50//55 52//55 54//55 56//55 58//55 60//55 62//55 64//55 66//55 68//55 70//55 72//55 74//55 76//55 78//55 80//55
