# Blender v2.79 (sub 0) OBJ File: ''
# www.blender.org
mtllib pacman1.mtl
o Cylinder_Cylinder.002
v 0.652567 1.231090 -0.932705
v 0.652567 1.434883 0.067295
v 1.518592 1.231090 -0.432705
v 1.518592 1.231090 0.567295
v 0.652567 1.231090 1.067295
v -0.213459 1.231090 0.567295
v -0.213459 1.231090 -0.432705
v 0.652567 1.149120 -1.012977
v 1.588109 1.149120 -0.472841
v 1.588109 1.149120 0.607431
v 0.652566 1.149120 1.147567
v -0.282976 1.149120 0.607431
v -0.282976 1.149120 -0.472841
v 0.652567 1.056099 -1.012977
v 1.588109 1.056099 -0.472841
v 1.588109 1.056099 0.607431
v 0.652566 1.056099 1.147567
v -0.282976 1.056099 0.607431
v -0.282976 1.056099 -0.472841
vn 0.1145 0.9734 -0.1984
vn 0.2291 0.9734 0.0000
vn 0.1145 0.9734 0.1984
vn -0.1145 0.9734 0.1984
vn -0.2291 0.9734 0.0000
vn -0.1145 0.9734 -0.1984
vn 0.7627 0.6468 0.0000
vn 1.0000 0.0000 0.0000
vn 0.3813 0.6468 -0.6605
vn -0.7627 0.6468 0.0000
vn 0.3813 0.6468 0.6605
vn -0.3813 0.6468 -0.6605
vn -0.3813 0.6468 0.6605
vn 0.0000 -1.0000 0.0000
vn -1.0000 0.0000 0.0000
vn 0.5000 0.0000 0.8660
vn 0.5000 0.0000 -0.8660
vn -0.5000 0.0000 -0.8660
vn -0.5000 0.0000 0.8660
usemtl None
s off
f 1//1 2//1 3//1
f 3//2 2//2 4//2
f 4//3 2//3 5//3
f 5//4 2//4 6//4
f 6//5 2//5 7//5
f 7//6 2//6 1//6
f 3//7 4//7 10//7 9//7
f 9//8 10//8 16//8 15//8
f 1//9 3//9 9//9 8//9
f 6//10 7//10 13//10 12//10
f 4//11 5//11 11//11 10//11
f 7//12 1//12 8//12 13//12
f 5//13 6//13 12//13 11//13
f 14//14 15//14 16//14 17//14 18//14 19//14
f 12//15 13//15 19//15 18//15
f 10//16 11//16 17//16 16//16
f 8//17 9//17 15//17 14//17
f 13//18 8//18 14//18 19//18
f 11//19 12//19 18//19 17//19
o Cylinder.001
v 3.888053 0.991200 -12.257059
v 3.888053 2.991200 -12.257059
v 4.110574 0.991200 -12.231987
v 4.110574 2.991200 -12.231987
v 4.321937 0.991200 -12.158028
v 4.321937 2.991200 -12.158028
v 4.511543 0.991200 -12.038891
v 4.511543 2.991200 -12.038891
v 4.669885 0.991200 -11.880548
v 4.669885 2.991200 -11.880548
v 4.789022 0.991200 -11.690943
v 4.789022 2.991200 -11.690943
v 4.862981 0.991200 -11.479580
v 4.862981 2.991200 -11.479580
v 4.888053 0.991200 -11.257059
v 4.888053 2.991200 -11.257059
v 4.862981 0.991200 -11.034538
v 4.862981 2.991200 -11.034538
v 4.789022 0.991200 -10.823175
v 4.789022 2.991200 -10.823175
v 4.669885 0.991200 -10.633570
v 4.669885 2.991200 -10.633570
v 4.511543 0.991200 -10.475227
v 4.511543 2.991200 -10.475227
v 4.321937 0.991200 -10.356091
v 4.321937 2.991200 -10.356091
v 4.110574 0.991200 -10.282131
v 4.110574 2.991200 -10.282131
v 3.888053 0.991200 -10.257059
v 3.888053 2.991200 -10.257059
v 3.665532 0.991200 -10.282131
v 3.665532 2.991200 -10.282131
v 3.454169 0.991200 -10.356091
v 3.454169 2.991200 -10.356091
v 3.264563 0.991200 -10.475228
v 3.264563 2.991200 -10.475228
v 3.106221 0.991200 -10.633570
v 3.106221 2.991200 -10.633570
v 2.987084 0.991200 -10.823176
v 2.987084 2.991200 -10.823176
v 2.913125 0.991200 -11.034539
v 2.913125 2.991200 -11.034539
v 2.888053 0.991200 -11.257060
v 2.888053 2.991200 -11.257060
v 2.913125 0.991200 -11.479581
v 2.913125 2.991200 -11.479581
v 2.987085 0.991200 -11.690944
v 2.987085 2.991200 -11.690944
v 3.106222 0.991200 -11.880549
v 3.106222 2.991200 -11.880549
v 3.264564 0.991200 -12.038892
v 3.264564 2.991200 -12.038892
v 3.454170 0.991200 -12.158029
v 3.454170 2.991200 -12.158029
v 3.665534 0.991200 -12.231987
v 3.665534 2.991200 -12.231987
vn 0.1120 0.0000 -0.9937
vn 0.3303 0.0000 -0.9439
vn 0.5320 0.0000 -0.8467
vn 0.7071 0.0000 -0.7071
vn 0.8467 0.0000 -0.5320
vn 0.9439 0.0000 -0.3303
vn 0.9937 0.0000 -0.1120
vn 0.9937 0.0000 0.1120
vn 0.9439 0.0000 0.3303
vn 0.8467 0.0000 0.5320
vn 0.7071 0.0000 0.7071
vn 0.5320 0.0000 0.8467
vn 0.3303 0.0000 0.9439
vn 0.1120 0.0000 0.9937
vn -0.1120 0.0000 0.9937
vn -0.3303 0.0000 0.9439
vn -0.5320 0.0000 0.8467
vn -0.7071 0.0000 0.7071
vn -0.8467 0.0000 0.5320
vn -0.9439 0.0000 0.3303
vn -0.9937 0.0000 0.1120
vn -0.9937 0.0000 -0.1120
vn -0.9439 0.0000 -0.3303
vn -0.8467 0.0000 -0.5320
vn -0.7071 0.0000 -0.7071
vn -0.5320 0.0000 -0.8467
vn 0.0000 1.0000 0.0000
vn -0.3303 0.0000 -0.9439
vn -0.1120 0.0000 -0.9937
vn 0.0000 -1.0000 -0.0000
usemtl None
s off
f 20//20 21//20 23//20 22//20
f 22//21 23//21 25//21 24//21
f 24//22 25//22 27//22 26//22
f 26//23 27//23 29//23 28//23
f 28//24 29//24 31//24 30//24
f 30//25 31//25 33//25 32//25
f 32//26 33//26 35//26 34//26
f 34//27 35//27 37//27 36//27
f 36//28 37//28 39//28 38//28
f 38//29 39//29 41//29 40//29
f 40//30 41//30 43//30 42//30
f 42//31 43//31 45//31 44//31
f 44//32 45//32 47//32 46//32
f 46//33 47//33 49//33 48//33
f 48//34 49//34 51//34 50//34
f 50//35 51//35 53//35 52//35
f 52//36 53//36 55//36 54//36
f 54//37 55//37 57//37 56//37
f 56//38 57//38 59//38 58//38
f 58//39 59//39 61//39 60//39
f 60//40 61//40 63//40 62//40
f 62//41 63//41 65//41 64//41
f 64//42 65//42 67//42 66//42
f 66//43 67//43 69//43 68//43
f 68//44 69//44 71//44 70//44
f 70//45 71//45 73//45 72//45
f 23//46 21//46 75//46 73//46 71//46 69//46 67//46 65//46 63//46 61//46 59//46 57//46 55//46 53//46 51//46 49//46 47//46 45//46 43//46 41//46 39//46 37//46 35//46 33//46 31//46 29//46 27//46 25//46
f 72//47 73//47 75//47 74//47
f 74//48 75//48 21//48 20//48
f 20//49 22//49 24//49 26//49 28//49 30//49 32//49 34//49 36//49 38//49 40//49 42//49 44//49 46//49 48//49 50//49 52//49 54//49 56//49 58//49 60//49 62//49 64//49 66//49 68//49 70//49 72//49 74//49
