# Blender v2.79 (sub 0) OBJ File: 'trapezoid01.blend'
# www.blender.org
mtllib trapezoid02.mtl
o Cube
v 1.804555 -0.080000 -0.966191
v 1.801333 -0.080000 0.960000
v 1.662769 -0.080000 1.040000
v 1.659546 -0.080000 -1.033810
v 1.804555 0.080000 -0.966190
v 1.801333 0.080000 0.960001
v 1.662768 0.080000 1.040000
v 1.659546 0.080000 -1.033809
vn 0.0000 -1.0000 0.0000
vn 0.0000 1.0000 0.0000
vn 1.0000 0.0000 0.0017
vn 0.5000 -0.0000 0.8660
vn -1.0000 -0.0000 0.0016
vn 0.4226 0.0000 -0.9063
usemtl Material
s off
f 1//1 2//1 3//1 4//1
f 5//2 8//2 7//2 6//2
f 1//3 5//3 6//3 2//3
f 2//4 6//4 7//4 3//4
f 3//5 7//5 8//5 4//5
f 5//6 1//6 4//6 8//6
